<svg height="24.261" viewBox="0 0 24.258 24.261" width="24.258" xmlns="http://www.w3.org/2000/svg"><g fill="#e76f51"><path d="m575.665 117.691a.648.648 0 0 1 -.644.337q-4.951-.011-9.9-.005c-.487 0-.633-.149-.633-.637q0-4.951-.005-9.9a.643.643 0 0 1 .337-.644h.806a1.184 1.184 0 0 0 .16.036 10.3 10.3 0 0 1 5.349 2.019 10.806 10.806 0 0 1 4.356 6.8c.077.392.122.791.181 1.187zm-10.219-9.871v9.242h9.242a10.005 10.005 0 0 0 -9.242-9.242z" transform="translate(-551.41 -106.84)"/><path d="m369.189 162.046h9.579c.517 0 .669.146.653.665a10.986 10.986 0 0 1 -8.6 10.287 10.157 10.157 0 0 1 -7.786-1.483.477.477 0 1 1 .517-.792 9.734 9.734 0 0 0 3.448 1.393 9.17 9.17 0 0 0 5.07-.468c-.037-.1-.067-.181-.1-.265q-1.8-4.245-3.6-8.493a1.5 1.5 0 0 1 -.116-.57q-.01-4.621-.005-9.239v-.333a13.455 13.455 0 0 0 -1.412.215 9.916 9.916 0 0 0 -7.663 7.7 8.857 8.857 0 0 0 1.294 6.934c.05.08.106.158.153.239a.474.474 0 0 1 -.133.665.453.453 0 0 1 -.662-.154 15.523 15.523 0 0 1 -.815-1.439 10.343 10.343 0 0 1 1.9-11.6 10.731 10.731 0 0 1 5.721-3.27 14.423 14.423 0 0 1 1.877-.222c.536-.039.68.127.68.655v9.571zm.25.962c.242.57.48 1.12.7 1.674a.293.293 0 0 0 .331.211q3.718-.009 7.437 0a.356.356 0 0 0 .14 0c.053-.025.127-.07.137-.117.11-.578.21-1.158.317-1.76zm1.2 2.836c.264.62.513 1.215.774 1.8.021.047.127.081.19.081q2.559.006 5.118 0a.349.349 0 0 0 .253-.148c.2-.322.38-.654.554-.991.12-.234.214-.482.329-.743zm2.3 5.417a10.129 10.129 0 0 0 3.228-2.566h-4.316c.365.857.721 1.695 1.088 2.566z" transform="translate(-358.013 -148.969)"/></g></svg>