<svg height="20.436" viewBox="0 0 20.436 20.436" width="20.436" xmlns="http://www.w3.org/2000/svg"><g fill="none"><g stroke="#a4a4a4" stroke-linecap="round" stroke-linejoin="round" stroke-width="1.5"><path d="m7.238 7.578v-5.79c0-1.277-.545-1.788-1.899-1.788h-3.439c-1.355 0-1.9.511-1.9 1.788v5.79c0 1.277.545 1.788 1.9 1.788h3.44c1.353 0 1.898-.511 1.898-1.788z" transform="translate(11.495 1.703)"/><path d="m7.238 3.321v-1.533c0-1.277-.545-1.788-1.899-1.788h-3.439c-1.355 0-1.9.511-1.9 1.788v1.533c0 1.279.545 1.788 1.9 1.788h3.44c1.353 0 1.898-.509 1.898-1.788z" transform="translate(11.495 13.624)"/><path d="m7.238 1.788v5.79c0 1.277-.545 1.788-1.9 1.788h-3.438c-1.355 0-1.9-.511-1.9-1.788v-5.79c0-1.277.545-1.788 1.9-1.788h3.44c1.353 0 1.898.511 1.898 1.788z" transform="translate(1.703 9.366)"/><path d="m7.238 1.788v1.533c0 1.277-.545 1.788-1.9 1.788h-3.438c-1.355 0-1.9-.509-1.9-1.788v-1.533c0-1.277.545-1.788 1.9-1.788h3.44c1.353 0 1.898.511 1.898 1.788z" transform="translate(1.703 1.703)"/></g><path d="m0 0h20.436v20.436h-20.436z" opacity="0"/></g></svg>