<svg height="26.091" viewBox="0 0 26.091 26.091" width="26.091" xmlns="http://www.w3.org/2000/svg"><g><path d="m0 0h26.091v26.091h-26.091z" fill="none" opacity="0"/><path d="m16.307 0h-10.871a5.135 5.135 0 0 0 -5.436 5.436v6.523a5.135 5.135 0 0 0 5.436 5.436h4.348l4.838 3.218a1.084 1.084 0 0 0 1.685-.9v-2.319a5.135 5.135 0 0 0 5.436-5.436v-6.522a5.135 5.135 0 0 0 -5.436-5.436zm-1.631 9.588h-7.61a.815.815 0 0 1 0-1.631h7.61a.815.815 0 0 1 0 1.631z" fill="#264653" transform="translate(2.174 2.642)"/></g></svg>