<svg height="24" viewBox="0 0 24 24" width="24" xmlns="http://www.w3.org/2000/svg"><path d="m4.75 0a4.746 4.746 0 0 0 -.12 9.49.807.807 0 0 1 .22 0h.07a4.746 4.746 0 0 0 -.17-9.49z" fill="#2a9d8f" transform="translate(7.25 2)"/><path d="m12.12 1.395a9.929 9.929 0 0 0 -10.15 0 3.947 3.947 0 0 0 -1.97 3.23 3.914 3.914 0 0 0 1.96 3.21 9.239 9.239 0 0 0 5.08 1.41 9.239 9.239 0 0 0 5.08-1.41 3.945 3.945 0 0 0 1.96-3.23 3.937 3.937 0 0 0 -1.96-3.21z" fill="#2a9d8f" transform="translate(4.96 12.755)"/><path d="m0 0h24v24h-24z" fill="none" opacity="0"/></svg>