<svg height="25.838" viewBox="0 0 25.838 25.838" width="25.838" xmlns="http://www.w3.org/2000/svg"><path d="m15.767 0a6.039 6.039 0 0 0 -4.848 2.46 6.039 6.039 0 0 0 -4.848-2.46 6.118 6.118 0 0 0 -6.071 6.167 11.893 11.893 0 0 0 .568 3.652c1.725 5.516 7.043 8.815 9.674 9.72a2.357 2.357 0 0 0 1.354 0c2.631-.9 7.949-4.2 9.674-9.72a11.893 11.893 0 0 0 .568-3.652 6.118 6.118 0 0 0 -6.071-6.167z" fill="#e76f51" transform="translate(2 3.1)"/><path d="m0 0h25.838v25.838h-25.838z" fill="none" opacity="0" transform="matrix(-1 0 0 -1 25.838 25.838)"/></svg>