<svg height="24" viewBox="0 0 24 24" width="24" xmlns="http://www.w3.org/2000/svg"><g fill="#292d32"><path d="m16.44 2.895-5.86-2.61a4.143 4.143 0 0 0 -3.02 0l-5.86 2.61c-1.48.66-1.7 1.56-1.7 2.04s.22 1.38 1.7 2.04l5.86 2.61a3.835 3.835 0 0 0 1.51.29 3.835 3.835 0 0 0 1.51-.29l5.86-2.61c1.48-.66 1.7-1.56 1.7-2.04s-.21-1.38-1.7-2.04z" transform="translate(2.93 1.995)"/><path d="m9.68 6.79a2.829 2.829 0 0 1 -1.11-.23l-6.74-3a3.3 3.3 0 0 1 -1.83-2.82.74.74 0 0 1 1.48 0 1.815 1.815 0 0 0 .95 1.46l6.74 3a1.267 1.267 0 0 0 1.01 0l6.74-3a1.8 1.8 0 0 0 .95-1.46.74.74 0 0 1 1.48 0 3.309 3.309 0 0 1 -1.83 2.82l-6.74 3a2.745 2.745 0 0 1 -1.1.23z" transform="translate(2.32 10.25)"/><path d="m9.68 6.79a2.829 2.829 0 0 1 -1.11-.23l-6.74-3a3.085 3.085 0 0 1 -1.83-2.82.74.74 0 0 1 1.48 0 1.6 1.6 0 0 0 .95 1.46l6.74 3a1.267 1.267 0 0 0 1.01 0l6.74-3a1.6 1.6 0 0 0 .95-1.46.74.74 0 0 1 1.48 0 3.1 3.1 0 0 1 -1.83 2.82l-6.74 3a2.745 2.745 0 0 1 -1.1.23z" transform="translate(2.32 15.21)"/></g><path d="m0 0h24v24h-24z" fill="none" opacity="0"/></svg>