<svg height="24" viewBox="0 0 24 24" width="24" xmlns="http://www.w3.org/2000/svg"><g fill="none"><g stroke="#a4a4a4" stroke-linecap="round" stroke-linejoin="round" stroke-width="1.5"><path d="m9.615.225 5.9 2.62c1.7.75 1.7 1.99 0 2.74l-5.9 2.615a3.42 3.42 0 0 1 -2.44 0l-5.9-2.62c-1.7-.75-1.7-1.99 0-2.74l5.9-2.62a3.42 3.42 0 0 1 2.44.005z" transform="translate(3.395 2.695)"/><path d="m0 0a2.562 2.562 0 0 0 1.4 2.15l6.79 3.02a1.988 1.988 0 0 0 1.62 0l6.79-3.02a2.562 2.562 0 0 0 1.4-2.15" transform="translate(3 11)"/><path d="m0 0a2.357 2.357 0 0 0 1.4 2.15l6.79 3.02a1.988 1.988 0 0 0 1.62 0l6.79-3.02a2.357 2.357 0 0 0 1.4-2.15" transform="translate(3 16)"/></g><path d="m0 0h24v24h-24z" opacity="0"/></g></svg>