<svg height="45.298" viewBox="0 0 74.84 45.298" width="74.84" xmlns="http://www.w3.org/2000/svg"><g fill="#2a9d8f"><path d="m0 37.4a37.42 37.42 0 1 1 74.84.062m-3.969.012a33.451 33.451 0 1 0 -66.9-.042"/><path d="m134.5 81.6a7.944 7.944 0 0 1 .687 6.464 7.873 7.873 0 1 1 -4.317-9.618 1.134 1.134 0 0 0 1.545-.295q6.559-6.619 13.174-13.182a3.78 3.78 0 0 1 1.344-.913 1.839 1.839 0 0 1 2.141.87 1.961 1.961 0 0 1 -.348 2.448c-1.963 1.995-3.948 3.967-5.928 5.945-2.741 2.738-5.485 5.474-8.3 8.281m-6.771.11a3.916 3.916 0 1 0 3.892 3.938 3.866 3.866 0 0 0 -3.892-3.938" transform="translate(-90.287 -48.196)"/><path d="m48.044 72.286a25.6 25.6 0 0 1 19.22-23.528 25.293 25.293 0 0 1 16.507 1.312c1.517.649 2.071 1.661 1.558 2.836-.494 1.13-1.6 1.413-3.069.789a21.626 21.626 0 0 0 -29.575 14.333 39.535 39.535 0 0 0 -.7 4.727c-.055.394-.027.8-.107 1.191a1.934 1.934 0 0 1 -3.816-.088 10.8 10.8 0 0 1 -.014-1.572" transform="translate(-36.181 -36.126)"/><path d="m237.174 114.341c0 .43.021.862 0 1.29a2 2 0 0 1 -1.909 2 1.984 1.984 0 0 1 -2.02-1.876 33.868 33.868 0 0 0 -.372-3.846c-.4-1.758-1-3.473-1.569-5.187a1.98 1.98 0 1 1 3.659-1.468 26.3 26.3 0 0 1 2.215 9.09" transform="translate(-174.156 -78.233)"/></g></svg>