<svg height="56.654" viewBox="0 0 78.824 56.654" width="78.824" xmlns="http://www.w3.org/2000/svg"><path d="m77.593 31.888h-.009l-12.941.095a1.23 1.23 0 0 0 -1.156.834l-4.245 12.443-5.174-33.3a1.234 1.234 0 0 0 -1.18-1.043 1.263 1.263 0 0 0 -1.241.968l-8.077 36.958-5.776-22.76a1.25 1.25 0 0 0 -1.232-.929 1.233 1.233 0 0 0 -1.172 1l-5.757 30.52-6.222-46.607a1.232 1.232 0 0 0 -1.151-1.067 1.251 1.251 0 0 0 -1.26.93l-5.831 23.183h-13.937a1.232 1.232 0 1 0 0 2.463h14.9a1.231 1.231 0 0 0 1.194-.931l4.495-17.886 6.379 47.827a1.233 1.233 0 0 0 1.188 1.068h.034a1.23 1.23 0 0 0 1.209-1l6.143-32.56 5.688 22.415a1.187 1.187 0 0 0 1.214.929 1.232 1.232 0 0 0 1.183-.968l7.784-35.61 4.93 31.724a1.232 1.232 0 0 0 1.109 1.038 1.206 1.206 0 0 0 1.273-.829l5.581-16.353 12.064-.089a1.232 1.232 0 0 0 -.009-2.463z" fill="#ff8600" transform="translate(0 -9.001)"/></svg>