<svg height="31.855" viewBox="0 0 29.2 31.855" width="29.2" xmlns="http://www.w3.org/2000/svg"><g fill="#d9d9d9"><path d="m34.407 234.865a.667.667 0 0 0 -.938.011c-5.657 5.77-9.448 10.257-12.077 16.12a.664.664 0 1 0 1.212.543c2.548-5.682 6.261-10.071 11.814-15.735a.664.664 0 0 0 -.011-.939z" transform="translate(-21.333 -220.076)"/><path d="m89.882 0a25.912 25.912 0 0 0 -25.882 25.882.664.664 0 0 0 .664.664 25.876 25.876 0 0 0 22.8-13.622.664.664 0 0 0 -.585-.978h-2.461l4.408-2.519a.658.658 0 0 0 .3-.361 25.809 25.809 0 0 0 1.422-8.4.664.664 0 0 0 -.666-.666zm-1.934 8.4-6.359 3.633a.664.664 0 0 0 .329 1.241h3.816a24.537 24.537 0 0 1 -20.4 11.936 24.584 24.584 0 0 1 23.875-23.873 24.572 24.572 0 0 1 -1.261 7.063z" transform="translate(-61.345)"/></g></svg>