<svg height="21.62" viewBox="0 0 21.711 21.62" width="21.711" xmlns="http://www.w3.org/2000/svg"><path d="m-111.765 232.2h-18.3a1.161 1.161 0 0 0 -1.138 1.161v2.071a1.161 1.161 0 0 0 1.138 1.161h18.3a1.181 1.181 0 0 0 1.161-1.161v-2.048a1.171 1.171 0 0 0 -1.161-1.184zm0 11.493h-18.3a1.067 1.067 0 0 0 -.8.341 1.117 1.117 0 0 0 -.341.819v2.071a1.161 1.161 0 0 0 1.138 1.161h18.3a1.165 1.165 0 0 0 1.161-1.161v-2.071a1.165 1.165 0 0 0 -1.158-1.16zm-7.988 5.735h-10.309a1.067 1.067 0 0 0 -.8.341 1.214 1.214 0 0 0 -.341.819v2.071a1.161 1.161 0 0 0 1.138 1.161h10.286a1.141 1.141 0 0 0 1.138-1.138v-2.071a1.094 1.094 0 0 0 -1.112-1.184zm9.149-11.493h-19.458a1.068 1.068 0 0 0 -.8.341 1.214 1.214 0 0 0 -.341.819v2.071a1.161 1.161 0 0 0 1.138 1.161h19.435a1.146 1.146 0 0 0 1.138-1.161v-2.066a1.141 1.141 0 0 0 -1.108-1.165zm0 0" fill="#00c3f7" transform="translate(131.2 -232.2)"/></svg>