<svg height="24.235" viewBox="0 0 24 24.235" width="24" xmlns="http://www.w3.org/2000/svg"><g fill="none"><g stroke="#f5fcff" stroke-linecap="round" stroke-linejoin="round" stroke-width="2"><path d="m14.96 4.274c2.09 4.2-.11 8.66-3.34 10.61v1.16c0 .29.11.96-.96.96h-5.51c-1.1 0-.96-.43-.96-.96v-1.16a8.579 8.579 0 0 1 -4.19-6.984 7.919 7.919 0 0 1 9.69-7.706 8.013 8.013 0 0 1 2.14.806" transform="translate(4.11 1.996)"/><path d="m1.172 0-1.072 1.86c-.24.41-.04.75.43.75h1.27c.48 0 .67.34.43.75l-1.058 1.86" transform="translate(10.828 7.89)"/><path d="m0 .487a12.808 12.808 0 0 1 7 0" transform="translate(8.5 22.512)"/></g><path d="m0 0h24v24h-24z" opacity="0"/></g></svg>